<?xml version="1.0" encoding="utf-8" ?>
<svg xmlns="http://www.w3.org/2000/svg" version="1.1" fill="currentColor" viewBox="0 0 355.86 355.86" width="355.86" height="355.86">
  <path d="M 336.22,0.00
           C 336.22,0.00 19.64,0.00 19.64,0.00
             8.80,0.00 0.00,8.79 0.00,19.64
             0.00,19.64 0.00,336.22 0.00,336.22
             0.00,347.07 8.80,355.86 19.64,355.86
             19.64,355.86 190.08,355.86 190.08,355.86
             190.08,355.86 190.08,218.05 190.08,218.05
             190.08,218.05 143.70,218.05 143.70,218.05
             143.70,218.05 143.70,164.35 143.70,164.35
             143.70,164.35 190.08,164.35 190.08,164.35
             190.08,164.35 190.08,124.74 190.08,124.74
             190.08,78.78 218.15,53.75 259.15,53.75
             278.80,53.75 295.68,55.21 300.59,55.86
             300.59,55.86 300.59,103.90 300.59,103.90
             300.59,103.90 272.16,103.91 272.16,103.91
             249.86,103.91 245.54,114.51 245.54,130.06
             245.54,130.06 245.54,164.35 245.54,164.35
             245.54,164.35 298.72,164.35 298.72,164.35
             298.72,164.35 291.80,218.05 291.80,218.05
             291.80,218.05 245.54,218.05 245.54,218.05
             245.54,218.05 245.54,355.86 245.54,355.86
             245.54,355.86 336.22,355.86 336.22,355.86
             347.07,355.86 355.86,347.07 355.86,336.22
             355.86,336.22 355.86,19.64 355.86,19.64
             355.86,8.79 347.07,0.00 336.22,0.00" />
</svg>
