<?xml version="1.0" encoding="utf-8" ?>
<svg xmlns="http://www.w3.org/2000/svg" version="1.1" fill="currentColor" viewBox="0 0 671.78668 671.78668" width="671.78668" height="671.78668">
  <path d="M 474.38,2.02
           C 510.13,3.65 534.55,9.33 555.92,17.63
             578.01,26.22 596.74,37.70 615.41,56.37
             634.09,75.05 645.57,93.78 654.15,115.87
             662.46,137.23 668.14,161.65 669.77,197.40
             671.40,233.23 671.79,244.67 671.79,335.89
             671.79,427.12 671.40,438.55 669.77,474.38
             668.14,510.13 662.46,534.55 654.15,555.92
             645.57,578.00 634.09,596.74 615.41,615.41
             596.74,634.08 578.01,645.57 555.92,654.15
             534.55,662.46 510.13,668.13 474.38,669.77
             438.56,671.40 427.12,671.79 335.89,671.79
             244.67,671.79 233.23,671.40 197.41,669.77
             161.65,668.13 137.24,662.46 115.87,654.15
             93.78,645.57 75.05,634.08 56.38,615.41
             37.70,596.74 26.22,578.00 17.63,555.92
             9.33,534.55 3.65,510.13 2.02,474.38
             0.39,438.55 0.00,427.12 0.00,335.89
             0.00,244.67 0.39,233.23 2.02,197.40
             3.65,161.65 9.33,137.23 17.63,115.87
             26.22,93.78 37.70,75.05 56.38,56.37
             75.05,37.70 93.78,26.22 115.87,17.63
             137.24,9.33 161.65,3.65 197.41,2.02
             233.23,0.39 244.67,-0.00 335.89,-0.00
             427.12,-0.00 438.56,0.39 474.38,2.02 Z
           M 335.89,60.52
           C 246.21,60.52 235.58,60.86 200.16,62.48
             167.41,63.97 149.63,69.44 137.79,74.04
             122.11,80.14 110.93,87.42 99.17,99.17
             87.42,110.92 80.14,122.11 74.05,137.79
             69.45,149.63 63.97,167.41 62.48,200.16
             60.86,235.58 60.52,246.21 60.52,335.89
             60.52,425.58 60.86,436.20 62.48,471.62
             63.97,504.37 69.45,522.16 74.05,533.99
             80.14,549.67 87.42,560.86 99.17,572.61
             110.93,584.37 122.11,591.65 137.79,597.74
             149.63,602.34 167.41,607.81 200.16,609.31
             235.58,610.92 246.20,611.27 335.89,611.27
             425.59,611.27 436.21,610.92 471.62,609.31
             504.37,607.81 522.16,602.34 533.99,597.74
             549.67,591.65 560.86,584.37 572.62,572.61
             584.37,560.86 591.65,549.67 597.74,533.99
             602.34,522.16 607.81,504.37 609.31,471.62
             610.92,436.20 611.27,425.58 611.27,335.89
             611.27,246.21 610.92,235.58 609.31,200.16
             607.81,167.41 602.34,149.63 597.74,137.79
             591.65,122.11 584.37,110.92 572.62,99.17
             560.86,87.42 549.67,80.14 533.99,74.04
             522.16,69.44 504.37,63.97 471.62,62.48
             436.21,60.86 425.58,60.52 335.89,60.52" />
  <path d="M 335.89,447.86
           C 397.73,447.86 447.86,397.73 447.86,335.89
             447.86,274.06 397.73,223.93 335.89,223.93
             274.06,223.93 223.93,274.06 223.93,335.89
             223.93,397.73 274.06,447.86 335.89,447.86
             335.89,447.86 335.89,447.86 335.89,447.86 Z
           M 335.89,163.41
           C 431.16,163.41 508.38,240.63 508.38,335.89
             508.38,431.15 431.16,508.38 335.89,508.38
             240.63,508.38 163.41,431.15 163.41,335.89
             163.41,240.63 240.63,163.41 335.89,163.41" />
  <path d="M 555.50,156.59
           C 555.50,134.33 537.46,116.28 515.19,116.28
             492.93,116.28 474.89,134.33 474.89,156.59
             474.89,178.85 492.93,196.90 515.19,196.90
             537.46,196.90 555.50,178.85 555.50,156.59" />
</svg>
