<?xml version="1.0" encoding="utf-8" ?>
<svg xmlns="http://www.w3.org/2000/svg" version="1.1" viewBox="0 0 128 128">
    <g>
        <path   d=" M   63.86,0.49
                    C   28.79,0.49 0.36,28.92 0.36,63.99
                        0.36,99.05 28.79,127.48 63.86,127.48
                        98.93,127.48 127.35,99.05 127.35,63.99
                        127.35,28.92 98.93,0.49 63.86,0.49      Z
                    M   87.10,50.78
                    C   86.30,50.62 85.33,50.48 84.20,50.36
                        83.07,50.24 81.98,50.18 80.93,50.18
                        77.78,50.18 75.12,50.70 72.94,51.75
                        70.76,52.80 69.01,54.23 67.68,56.05
                        66.35,57.86 65.40,59.98 64.83,62.40
                        64.27,64.83 63.99,67.45 63.99,70.27
                        63.99,70.27 63.99,98.48 63.99,98.48
                        63.99,98.48 46.80,98.48 46.80,98.48
                        46.80,98.48 46.80,35.90 46.80,35.90
                        46.80,35.90 63.15,35.90 63.15,35.90
                        63.15,35.90 63.15,47.52 63.15,47.52
                        63.15,47.52 63.39,47.52 63.39,47.52
                        64.19,45.59 65.28,43.80 66.65,42.15
                        68.02,40.50 69.59,39.09 71.37,37.93
                        73.14,36.76 75.04,35.86 77.06,35.21
                        79.08,34.57 81.17,34.25 83.35,34.25
                        84.48,34.25 85.73,34.45 87.10,34.85
                        87.10,34.85 87.10,50.78 87.10,50.78
                        87.10,50.78 87.10,50.78 87.10,50.78     Z"/>
    </g>
</svg>
