<?xml version="1.0" encoding="utf-8" ?>
<svg xmlns="http://www.w3.org/2000/svg" version="1.1" viewBox="0 0 748 128">
    <g>
        <path d="M 27.64,56.87
                 C 27.64,56.87 27.64,21.48 27.64,21.48
                   27.64,21.48 57.91,21.48 57.91,21.48
                   64.25,21.48 69.00,22.89 72.17,25.71
                   75.34,28.41 76.93,32.81 76.93,38.91
                   76.93,45.25 75.34,49.83 72.17,52.64
                   69.00,55.46 64.25,56.87 57.91,56.87
                   57.91,56.87 27.64,56.87 27.64,56.87 Z
                 M 0.00,-0.00
                 C 0.00,-0.00 0.00,125.71 0.00,125.71
                   0.00,125.71 27.64,125.71 27.64,125.71
                   27.64,125.71 27.64,76.59 27.64,76.59
                   27.64,76.59 55.27,76.59 55.27,76.59
                   62.20,76.59 67.19,78.11 70.24,81.17
                   73.29,84.22 75.28,89.03 76.22,95.60
                   76.93,100.65 77.45,105.93 77.81,111.45
                   78.16,116.97 79.10,121.72 80.62,125.71
                   80.62,125.71 108.26,125.71 108.26,125.71
                   106.97,123.95 105.97,121.84 105.27,119.37
                   104.68,116.79 104.21,114.09 103.86,111.27
                   103.62,108.46 103.45,105.70 103.33,103.00
                   103.21,100.30 103.10,97.95 102.98,95.96
                   102.74,92.79 102.27,89.62 101.57,86.45
                   100.98,83.28 99.99,80.40 98.58,77.82
                   97.17,75.12 95.35,72.83 93.12,70.95
                   90.89,68.96 88.07,67.49 84.67,66.55
                   84.67,66.55 84.67,66.20 84.67,66.20
                   91.71,63.38 96.76,59.28 99.81,53.88
                   102.98,48.48 104.56,42.08 104.56,34.69
                   104.56,29.87 103.68,25.41 101.92,21.30
                   100.28,17.08 97.81,13.38 94.53,10.21
                   91.36,7.04 87.49,4.58 82.91,2.82
                   78.45,0.94 73.41,0.00 67.77,0.00
                   67.77,0.00 0.00,-0.00 0.00,-0.00 Z
                 M 185.83,70.43
                 C 185.83,70.43 145.17,70.43 145.17,70.43
                   145.28,68.67 145.64,66.67 146.22,64.44
                   146.93,62.21 148.04,60.10 149.57,58.10
                   151.21,56.11 153.32,54.46 155.90,53.17
                   158.60,51.76 161.95,51.06 165.94,51.06
                   172.04,51.06 176.56,52.70 179.49,55.99
                   182.54,59.28 184.66,64.09 185.83,70.43
                   185.83,70.43 185.83,70.43 185.83,70.43 Z
                 M 145.17,86.27
                 C 145.17,86.27 210.83,86.27 210.83,86.27
                   211.29,79.23 210.71,72.48 209.07,66.02
                   207.42,59.57 204.72,53.82 200.97,48.77
                   197.33,43.72 192.64,39.73 186.89,36.80
                   181.13,33.75 174.39,32.22 166.64,32.22
                   159.72,32.22 153.38,33.45 147.63,35.92
                   142.00,38.38 137.13,41.79 133.02,46.13
                   128.91,50.35 125.74,55.40 123.51,61.27
                   121.28,67.14 120.17,73.48 120.17,80.29
                   120.17,87.33 121.23,93.78 123.34,99.65
                   125.57,105.52 128.68,110.57 132.67,114.80
                   136.66,119.02 141.53,122.31 147.28,124.65
                   153.03,126.88 159.48,128.00 166.64,128.00
                   176.97,128.00 185.77,125.65 193.05,120.96
                   200.32,116.26 205.72,108.46 209.24,97.54
                   209.24,97.54 187.24,97.54 187.24,97.54
                   186.42,100.36 184.19,103.06 180.55,105.64
                   176.91,108.10 172.57,109.34 167.52,109.34
                   160.48,109.34 155.08,107.52 151.33,103.88
                   147.57,100.24 145.52,94.37 145.17,86.27 Z
                 M 290.25,79.93
                 C 290.25,83.69 289.90,87.33 289.20,90.85
                   288.49,94.37 287.32,97.54 285.68,100.36
                   284.03,103.06 281.80,105.23 278.99,106.87
                   276.29,108.52 272.89,109.34 268.78,109.34
                   264.91,109.34 261.56,108.52 258.74,106.87
                   256.05,105.11 253.76,102.88 251.88,100.18
                   250.12,97.36 248.83,94.20 248.01,90.67
                   247.19,87.15 246.77,83.63 246.77,80.11
                   246.77,76.35 247.13,72.77 247.83,69.37
                   248.65,65.85 249.88,62.74 251.53,60.04
                   253.29,57.34 255.58,55.17 258.39,53.52
                   261.21,51.88 264.67,51.06 268.78,51.06
                   272.89,51.06 276.29,51.88 278.99,53.52
                   281.69,55.17 283.86,57.34 285.50,60.04
                   287.26,62.62 288.49,65.67 289.20,69.19
                   289.90,72.60 290.25,76.18 290.25,79.93
                   290.25,79.93 290.25,79.93 290.25,79.93 Z
                 M 290.61,114.09
                 C 290.61,114.09 290.61,125.71 290.61,125.71
                   290.61,125.71 314.37,125.71 314.37,125.71
                   314.37,125.71 314.37,-0.00 314.37,-0.00
                   314.37,-0.00 289.37,-0.00 289.37,-0.00
                   289.37,-0.00 289.37,45.78 289.37,45.78
                   289.37,45.78 289.02,45.78 289.02,45.78
                   286.21,41.32 282.33,37.97 277.40,35.74
                   272.59,33.39 267.49,32.22 262.09,32.22
                   255.40,32.22 249.53,33.57 244.49,36.27
                   239.44,38.85 235.22,42.31 231.81,46.66
                   228.53,51.00 226.00,56.05 224.24,61.80
                   222.60,67.43 221.78,73.30 221.78,79.41
                   221.78,85.74 222.60,91.85 224.24,97.72
                   226.00,103.59 228.53,108.81 231.81,113.39
                   235.22,117.85 239.50,121.43 244.66,124.13
                   249.83,126.71 255.81,128.00 262.62,128.00
                   268.60,128.00 273.94,126.94 278.64,124.83
                   283.45,122.60 287.32,119.02 290.25,114.09
                   290.25,114.09 290.61,114.09 290.61,114.09 Z
                 M 399.98,80.29
                 C 399.98,84.04 399.57,87.68 398.75,91.20
                   397.93,94.72 396.64,97.83 394.87,100.53
                   393.11,103.23 390.88,105.40 388.19,107.05
                   385.60,108.57 382.44,109.34 378.68,109.34
                   375.04,109.34 371.87,108.57 369.17,107.05
                   366.48,105.40 364.25,103.23 362.49,100.53
                   360.72,97.83 359.43,94.72 358.61,91.20
                   357.79,87.68 357.38,84.04 357.38,80.29
                   357.38,76.41 357.79,72.72 358.61,69.19
                   359.43,65.67 360.72,62.56 362.49,59.86
                   364.25,57.16 366.48,55.05 369.17,53.52
                   371.87,51.88 375.04,51.06 378.68,51.06
                   382.44,51.06 385.60,51.88 388.19,53.52
                   390.88,55.05 393.11,57.16 394.87,59.86
                   396.64,62.56 397.93,65.67 398.75,69.19
                   399.57,72.72 399.98,76.41 399.98,80.29 Z
                 M 333.26,0.00
                 C 333.26,0.00 333.26,125.71 333.26,125.71
                   333.26,125.71 357.03,125.71 357.03,125.71
                   357.03,125.71 357.03,114.09 357.03,114.09
                   357.03,114.09 357.38,114.09 357.38,114.09
                   360.08,119.14 364.07,122.72 369.35,124.83
                   374.63,126.94 380.62,128.00 387.31,128.00
                   391.88,128.00 396.40,127.06 400.86,125.18
                   405.32,123.30 409.31,120.43 412.83,116.56
                   416.47,112.68 419.40,107.75 421.63,101.77
                   423.86,95.66 424.98,88.44 424.98,80.11
                   424.98,71.78 423.86,64.62 421.63,58.63
                   419.40,52.53 416.47,47.54 412.83,43.66
                   409.31,39.79 405.32,36.92 400.86,35.04
                   396.40,33.16 391.88,32.22 387.31,32.22
                   381.67,32.22 376.22,33.34 370.93,35.57
                   365.77,37.68 361.66,41.08 358.61,45.78
                   358.61,45.78 358.26,45.78 358.26,45.78
                   358.26,45.78 358.26,-0.00 358.26,-0.00
                   358.26,-0.00 333.26,0.00 333.26,0.00 Z
                 M 440.88,34.69
                 C 440.88,34.69 440.88,125.71 440.88,125.71
                   440.88,125.71 465.87,125.71 465.87,125.71
                   465.87,125.71 465.87,84.69 465.87,84.69
                   465.87,80.58 466.28,76.76 467.11,73.24
                   467.93,69.72 469.28,66.67 471.15,64.09
                   473.15,61.39 475.73,59.28 478.90,57.75
                   482.07,56.22 485.94,55.46 490.52,55.46
                   492.04,55.46 493.63,55.58 495.27,55.81
                   496.91,55.93 498.32,56.11 499.50,56.34
                   499.50,56.34 499.50,33.10 499.50,33.10
                   497.50,32.51 495.68,32.22 494.04,32.22
                   490.87,32.22 487.82,32.69 484.88,33.63
                   481.95,34.57 479.19,35.92 476.61,37.68
                   474.03,39.32 471.74,41.38 469.75,43.84
                   467.75,46.19 466.17,48.77 464.99,51.59
                   464.99,51.59 464.64,51.59 464.64,51.59
                   464.64,51.59 464.64,34.69 464.64,34.69
                   464.64,34.69 440.88,34.69 440.88,34.69 Z
                 M 616.64,66.73
                 C 616.64,66.73 641.11,66.73 641.11,66.73
                   640.76,60.86 639.35,55.81 636.89,51.59
                   634.42,47.24 631.19,43.66 627.20,40.85
                   623.33,37.91 618.87,35.74 613.83,34.33
                   608.90,32.92 603.73,32.22 598.33,32.22
                   590.94,32.22 584.37,33.45 578.62,35.92
                   572.87,38.38 568.00,41.85 564.01,46.31
                   560.02,50.65 556.97,55.87 554.85,61.98
                   552.86,67.96 551.86,74.48 551.86,81.52
                   551.86,88.33 552.98,94.61 555.21,100.36
                   557.44,105.99 560.55,110.86 564.54,114.97
                   568.53,119.08 573.34,122.31 578.97,124.65
                   584.72,126.88 591.00,128.00 597.81,128.00
                   609.89,128.00 619.81,124.83 627.56,118.49
                   635.30,112.15 640.00,102.94 641.64,90.85
                   641.64,90.85 617.52,90.85 617.52,90.85
                   616.70,96.48 614.65,101.00 611.36,104.41
                   608.19,107.69 603.62,109.34 597.63,109.34
                   593.76,109.34 590.47,108.46 587.77,106.70
                   585.07,104.94 582.90,102.71 581.26,100.01
                   579.73,97.19 578.62,94.08 577.91,90.67
                   577.21,87.27 576.86,83.92 576.86,80.64
                   576.86,77.23 577.21,73.83 577.91,70.43
                   578.62,66.91 579.79,63.74 581.44,60.92
                   583.20,57.98 585.43,55.64 588.12,53.88
                   590.82,52.00 594.17,51.06 598.16,51.06
                   608.84,51.06 615.00,56.28 616.64,66.73
                   616.64,66.73 616.64,66.73 616.64,66.73 Z
                 M 658.05,-0.00
                 C 658.05,-0.00 658.05,125.71 658.05,125.71
                   658.05,125.71 683.04,125.71 683.04,125.71
                   683.04,125.71 683.04,94.37 683.04,94.37
                   683.04,94.37 692.73,85.04 692.73,85.04
                   692.73,85.04 717.72,125.71 717.72,125.71
                   717.72,125.71 748.00,125.71 748.00,125.71
                   748.00,125.71 709.80,68.14 709.80,68.14
                   709.80,68.14 744.13,34.69 744.13,34.69
                   744.13,34.69 714.55,34.69 714.55,34.69
                   714.55,34.69 683.04,67.43 683.04,67.43
                   683.04,67.43 683.04,0.00 683.04,0.00
                   683.04,0.00 658.05,-0.00 658.05,-0.00 Z
                 M 510.00,34.69
                 C 510.00,34.69 510.00,125.71 510.00,125.71
                   510.00,125.71 535.00,125.71 535.00,125.71
                   535.00,125.71 535.00,34.69 535.00,34.69
                   535.00,34.69 510.00,34.69 510.00,34.69 Z
                 M 535.00,20.60
                 C 535.00,20.60 535.00,-0.00 535.00,-0.00
                   535.00,-0.00 510.00,-0.00 510.00,-0.00
                   510.00,-0.00 510.00,20.60 510.00,20.60
                   510.00,20.60 535.00,20.60 535.00,20.60 Z" />
    </g>
</svg>
