<?xml version="1.0" encoding="utf-8" ?>
<svg xmlns="http://www.w3.org/2000/svg" version="1.1" fill="currentColor" viewBox="0 0 249.90 203.20" width="249.90" height="203.20">
  <path d="M 224.40,57.30
           C 224.40,55.10 224.40,52.90 224.30,50.70
             234.30,43.50 243.00,34.40 249.90,24.10
             240.70,28.20 230.80,30.90 220.40,32.20
             231.00,25.90 239.10,15.80 243.00,3.80
             233.10,9.70 222.10,13.90 210.40,16.20
             201.00,6.20 187.70,0.00 173.00,0.00
             144.70,0.00 121.70,23.00 121.70,51.30
             121.70,55.30 122.20,59.20 123.00,63.00
             80.40,60.90 42.60,40.40 17.30,9.40
             12.90,17.00 10.40,25.80 10.40,35.20
             10.40,53.00 19.50,68.70 33.20,77.90
             24.80,77.60 16.90,75.30 10.00,71.50
             10.00,71.70 10.00,71.90 10.00,72.20
             10.00,97.00 27.70,117.80 51.10,122.50
             46.80,123.70 42.30,124.30 37.60,124.30
             34.30,124.30 31.10,124.00 28.00,123.40
             34.50,143.80 53.50,158.60 75.90,159.00
             58.30,172.80 36.20,181.00 12.20,181.00
             8.10,181.00 4.00,180.80 0.00,180.30
             22.60,194.70 49.60,203.20 78.50,203.20
             172.80,203.20 224.40,125.00 224.40,57.30 Z" />
</svg>
